<?xml version="1.0" encoding="UTF-8" standalone="no"?>
<!DOCTYPE svg PUBLIC "-//W3C//DTD SVG 1.1//EN"
 "http://www.w3.org/Graphics/SVG/1.1/DTD/svg11.dtd">
<!-- Generated by graphviz version 2.40.1 (20161225.0304)
 -->
<!-- Title: dependencies Pages: 1 -->
<svg width="1232pt" height="284pt"
 viewBox="0.00 0.00 1232.00 284.00" xmlns="http://www.w3.org/2000/svg" xmlns:xlink="http://www.w3.org/1999/xlink">
<g id="graph0" class="graph" transform="scale(1 1) rotate(0) translate(4 280)">
<title>dependencies</title>
<polygon fill="#ffffff" stroke="transparent" points="-4,4 -4,-280 1228,-280 1228,4 -4,4"/>
<text text-anchor="start" x="591.0091" y="-42.4" font-family="sans-serif" font-weight="bold" font-size="14.00" fill="#000000">Legend</text>
<polygon fill="#ffffb3" stroke="transparent" points="378,-10 378,-30 398,-30 398,-10 378,-10"/>
<text text-anchor="start" x="401.629" y="-15.4" font-family="sans-serif" font-size="14.00" fill="#000000"> &#160;Declarations</text>
<polygon fill="#8dd3c7" stroke="transparent" points="491,-10 491,-30 511,-30 511,-10 491,-10"/>
<text text-anchor="start" x="514.7251" y="-15.4" font-family="sans-serif" font-size="14.00" fill="#000000"> &#160;Module</text>
<polygon fill="#80b1d3" stroke="transparent" points="577,-10 577,-30 597,-30 597,-10 577,-10"/>
<text text-anchor="start" x="600.7812" y="-15.4" font-family="sans-serif" font-size="14.00" fill="#000000"> &#160;Bootstrap</text>
<polygon fill="#fdb462" stroke="transparent" points="674,-10 674,-30 694,-30 694,-10 674,-10"/>
<text text-anchor="start" x="697.6732" y="-15.4" font-family="sans-serif" font-size="14.00" fill="#000000"> &#160;Providers</text>
<polygon fill="#fb8072" stroke="transparent" points="770,-10 770,-30 790,-30 790,-10 770,-10"/>
<text text-anchor="start" x="793.7258" y="-15.4" font-family="sans-serif" font-size="14.00" fill="#000000"> &#160;Exports</text>
<g id="clust1" class="cluster">
<title>cluster_AppModule</title>
<polygon fill="none" stroke="#000000" stroke-dasharray="1,5" points="8,-70 8,-268 1216,-268 1216,-70 8,-70"/>
</g>
<g id="clust2" class="cluster">
<title>cluster_AppModule_declarations</title>
<polygon fill="none" stroke="#000000" points="16,-78 16,-130 1208,-130 1208,-78 16,-78"/>
</g>
<g id="clust13" class="cluster">
<title>cluster_AppModule_bootstrap</title>
<polygon fill="none" stroke="#000000" points="584,-208 584,-260 708,-260 708,-208 584,-208"/>
</g>
<!-- AppComponent -->
<g id="node1" class="node">
<title>AppComponent</title>
<polygon fill="#ffffb3" stroke="#000000" points="1199.9399,-122 1094.0601,-122 1094.0601,-86 1199.9399,-86 1199.9399,-122"/>
<text text-anchor="middle" x="1147" y="-99.8" font-family="Times,serif" font-size="14.00" fill="#000000">AppComponent</text>
</g>
<!-- AppModule -->
<g id="node9" class="node">
<title>AppModule</title>
<polygon fill="#8dd3c7" stroke="#000000" points="687.6571,-187 684.6571,-191 663.6571,-191 660.6571,-187 604.3429,-187 604.3429,-151 687.6571,-151 687.6571,-187"/>
<text text-anchor="middle" x="646" y="-164.8" font-family="Times,serif" font-size="14.00" fill="#000000">AppModule</text>
</g>
<!-- AppComponent&#45;&gt;AppModule -->
<g id="edge1" class="edge">
<title>AppComponent&#45;&gt;AppModule</title>
<path fill="none" stroke="#000000" d="M1147,-122.2921C1147,-144.2057 1147,-178 1147,-178 1147,-178 697.8533,-178 697.8533,-178"/>
<polygon fill="#000000" stroke="#000000" points="697.8533,-174.5001 687.8533,-178 697.8532,-181.5001 697.8533,-174.5001"/>
</g>
<!-- LoginComponent -->
<g id="node2" class="node">
<title>LoginComponent</title>
<polygon fill="#ffffb3" stroke="#000000" points="1076.2758,-122 961.7242,-122 961.7242,-86 1076.2758,-86 1076.2758,-122"/>
<text text-anchor="middle" x="1019" y="-99.8" font-family="Times,serif" font-size="14.00" fill="#000000">LoginComponent</text>
</g>
<!-- LoginComponent&#45;&gt;AppModule -->
<g id="edge2" class="edge">
<title>LoginComponent&#45;&gt;AppModule</title>
<path fill="none" stroke="#000000" d="M1019,-122.1061C1019,-141.3391 1019,-169 1019,-169 1019,-169 697.7021,-169 697.7021,-169"/>
<polygon fill="#000000" stroke="#000000" points="697.7021,-165.5001 687.7021,-169 697.7021,-172.5001 697.7021,-165.5001"/>
</g>
<!-- OrderAgentComponent -->
<g id="node3" class="node">
<title>OrderAgentComponent</title>
<polygon fill="#ffffb3" stroke="#000000" points="944.1867,-122 795.8133,-122 795.8133,-86 944.1867,-86 944.1867,-122"/>
<text text-anchor="middle" x="870" y="-99.8" font-family="Times,serif" font-size="14.00" fill="#000000">OrderAgentComponent</text>
</g>
<!-- OrderAgentComponent&#45;&gt;AppModule -->
<g id="edge3" class="edge">
<title>OrderAgentComponent&#45;&gt;AppModule</title>
<path fill="none" stroke="#000000" d="M870,-122.027C870,-138.3976 870,-160 870,-160 870,-160 697.8699,-160 697.8699,-160"/>
<polygon fill="#000000" stroke="#000000" points="697.87,-156.5001 687.8699,-160 697.8699,-163.5001 697.87,-156.5001"/>
</g>
<!-- OrderComponent -->
<g id="node4" class="node">
<title>OrderComponent</title>
<polygon fill="#ffffb3" stroke="#000000" points="777.9748,-122 664.0252,-122 664.0252,-86 777.9748,-86 777.9748,-122"/>
<text text-anchor="middle" x="721" y="-99.8" font-family="Times,serif" font-size="14.00" fill="#000000">OrderComponent</text>
</g>
<!-- OrderComponent&#45;&gt;AppModule -->
<g id="edge4" class="edge">
<title>OrderComponent&#45;&gt;AppModule</title>
<path fill="none" stroke="#000000" d="M675.9204,-122.1061C675.9204,-122.1061 675.9204,-140.991 675.9204,-140.991"/>
<polygon fill="#000000" stroke="#000000" points="672.4205,-140.9909 675.9204,-150.991 679.4205,-140.991 672.4205,-140.9909"/>
</g>
<!-- OrderCreateComponent -->
<g id="node5" class="node">
<title>OrderCreateComponent</title>
<polygon fill="#ffffb3" stroke="#000000" points="646.0072,-122 495.9928,-122 495.9928,-86 646.0072,-86 646.0072,-122"/>
<text text-anchor="middle" x="571" y="-99.8" font-family="Times,serif" font-size="14.00" fill="#000000">OrderCreateComponent</text>
</g>
<!-- OrderCreateComponent&#45;&gt;AppModule -->
<g id="edge5" class="edge">
<title>OrderCreateComponent&#45;&gt;AppModule</title>
<path fill="none" stroke="#000000" d="M625.2125,-122.1061C625.2125,-122.1061 625.2125,-140.991 625.2125,-140.991"/>
<polygon fill="#000000" stroke="#000000" points="621.7126,-140.9909 625.2125,-150.991 628.7126,-140.991 621.7126,-140.9909"/>
</g>
<!-- OrderSearchComponent -->
<g id="node6" class="node">
<title>OrderSearchComponent</title>
<polygon fill="#ffffb3" stroke="#000000" points="478.0618,-122 325.9382,-122 325.9382,-86 478.0618,-86 478.0618,-122"/>
<text text-anchor="middle" x="402" y="-99.8" font-family="Times,serif" font-size="14.00" fill="#000000">OrderSearchComponent</text>
</g>
<!-- OrderSearchComponent&#45;&gt;AppModule -->
<g id="edge6" class="edge">
<title>OrderSearchComponent&#45;&gt;AppModule</title>
<path fill="none" stroke="#000000" d="M402,-122.027C402,-138.3976 402,-160 402,-160 402,-160 594.3321,-160 594.3321,-160"/>
<polygon fill="#000000" stroke="#000000" points="594.3322,-163.5001 604.3321,-160 594.3321,-156.5001 594.3322,-163.5001"/>
</g>
<!-- OrderUpdateComponent -->
<g id="node7" class="node">
<title>OrderUpdateComponent</title>
<polygon fill="#ffffb3" stroke="#000000" points="308.4017,-122 153.5983,-122 153.5983,-86 308.4017,-86 308.4017,-122"/>
<text text-anchor="middle" x="231" y="-99.8" font-family="Times,serif" font-size="14.00" fill="#000000">OrderUpdateComponent</text>
</g>
<!-- OrderUpdateComponent&#45;&gt;AppModule -->
<g id="edge7" class="edge">
<title>OrderUpdateComponent&#45;&gt;AppModule</title>
<path fill="none" stroke="#000000" d="M231,-122.1061C231,-141.3391 231,-169 231,-169 231,-169 594.3081,-169 594.3081,-169"/>
<polygon fill="#000000" stroke="#000000" points="594.3081,-172.5001 604.3081,-169 594.3081,-165.5001 594.3081,-172.5001"/>
</g>
<!-- ViewComponent -->
<g id="node8" class="node">
<title>ViewComponent</title>
<polygon fill="#ffffb3" stroke="#000000" points="135.6513,-122 24.3487,-122 24.3487,-86 135.6513,-86 135.6513,-122"/>
<text text-anchor="middle" x="80" y="-99.8" font-family="Times,serif" font-size="14.00" fill="#000000">ViewComponent</text>
</g>
<!-- ViewComponent&#45;&gt;AppModule -->
<g id="edge8" class="edge">
<title>ViewComponent&#45;&gt;AppModule</title>
<path fill="none" stroke="#000000" d="M80,-122.2921C80,-144.2057 80,-178 80,-178 80,-178 593.9204,-178 593.9204,-178"/>
<polygon fill="#000000" stroke="#000000" points="593.9205,-181.5001 603.9204,-178 593.9204,-174.5001 593.9205,-181.5001"/>
</g>
<!-- AppComponent  -->
<g id="node10" class="node">
<title>AppComponent </title>
<polygon fill="#80b1d3" stroke="#000000" points="700.439,-252 591.561,-252 591.561,-216 700.439,-216 700.439,-252"/>
<text text-anchor="middle" x="646" y="-229.8" font-family="Times,serif" font-size="14.00" fill="#000000">AppComponent </text>
</g>
<!-- AppModule&#45;&gt;AppComponent  -->
<g id="edge9" class="edge">
<title>AppModule&#45;&gt;AppComponent </title>
<path fill="none" stroke="#000000" stroke-dasharray="1,5" d="M646,-187.1061C646,-187.1061 646,-205.991 646,-205.991"/>
<polygon fill="#000000" stroke="#000000" points="642.5001,-205.9909 646,-215.991 649.5001,-205.991 642.5001,-205.9909"/>
</g>
</g>
</svg>
