<?xml version="1.0" encoding="UTF-8" standalone="no"?>
<!DOCTYPE svg PUBLIC "-//W3C//DTD SVG 1.1//EN"
 "http://www.w3.org/Graphics/SVG/1.1/DTD/svg11.dtd">
<!-- Generated by graphviz version 2.40.1 (20161225.0304)
 -->
<!-- Title: dependencies Pages: 1 -->
<svg width="1395pt" height="284pt"
 viewBox="0.00 0.00 1395.00 284.00" xmlns="http://www.w3.org/2000/svg" xmlns:xlink="http://www.w3.org/1999/xlink">
<g id="graph0" class="graph" transform="scale(1 1) rotate(0) translate(4 280)">
<title>dependencies</title>
<polygon fill="#ffffff" stroke="transparent" points="-4,4 -4,-280 1391,-280 1391,4 -4,4"/>
<text text-anchor="start" x="672.5091" y="-42.4" font-family="sans-serif" font-weight="bold" font-size="14.00" fill="#000000">Legend</text>
<polygon fill="#ffffb3" stroke="transparent" points="459.5,-10 459.5,-30 479.5,-30 479.5,-10 459.5,-10"/>
<text text-anchor="start" x="483.129" y="-15.4" font-family="sans-serif" font-size="14.00" fill="#000000"> &#160;Declarations</text>
<polygon fill="#8dd3c7" stroke="transparent" points="572.5,-10 572.5,-30 592.5,-30 592.5,-10 572.5,-10"/>
<text text-anchor="start" x="596.2251" y="-15.4" font-family="sans-serif" font-size="14.00" fill="#000000"> &#160;Module</text>
<polygon fill="#80b1d3" stroke="transparent" points="658.5,-10 658.5,-30 678.5,-30 678.5,-10 658.5,-10"/>
<text text-anchor="start" x="682.2812" y="-15.4" font-family="sans-serif" font-size="14.00" fill="#000000"> &#160;Bootstrap</text>
<polygon fill="#fdb462" stroke="transparent" points="755.5,-10 755.5,-30 775.5,-30 775.5,-10 755.5,-10"/>
<text text-anchor="start" x="779.1732" y="-15.4" font-family="sans-serif" font-size="14.00" fill="#000000"> &#160;Providers</text>
<polygon fill="#fb8072" stroke="transparent" points="851.5,-10 851.5,-30 871.5,-30 871.5,-10 851.5,-10"/>
<text text-anchor="start" x="875.2258" y="-15.4" font-family="sans-serif" font-size="14.00" fill="#000000"> &#160;Exports</text>
<g id="clust1" class="cluster">
<title>cluster_AppModule</title>
<polygon fill="none" stroke="#000000" stroke-dasharray="1,5" points="8,-70 8,-268 1379,-268 1379,-70 8,-70"/>
</g>
<g id="clust2" class="cluster">
<title>cluster_AppModule_declarations</title>
<polygon fill="none" stroke="#000000" points="16,-78 16,-130 1371,-130 1371,-78 16,-78"/>
</g>
<g id="clust14" class="cluster">
<title>cluster_AppModule_bootstrap</title>
<polygon fill="none" stroke="#000000" points="659,-208 659,-260 783,-260 783,-208 659,-208"/>
</g>
<!-- AppComponent -->
<g id="node1" class="node">
<title>AppComponent</title>
<polygon fill="#ffffb3" stroke="#000000" points="1362.9399,-122 1257.0601,-122 1257.0601,-86 1362.9399,-86 1362.9399,-122"/>
<text text-anchor="middle" x="1310" y="-99.8" font-family="Times,serif" font-size="14.00" fill="#000000">AppComponent</text>
</g>
<!-- AppModule -->
<g id="node10" class="node">
<title>AppModule</title>
<polygon fill="#8dd3c7" stroke="#000000" points="762.6571,-187 759.6571,-191 738.6571,-191 735.6571,-187 679.3429,-187 679.3429,-151 762.6571,-151 762.6571,-187"/>
<text text-anchor="middle" x="721" y="-164.8" font-family="Times,serif" font-size="14.00" fill="#000000">AppModule</text>
</g>
<!-- AppComponent&#45;&gt;AppModule -->
<g id="edge1" class="edge">
<title>AppComponent&#45;&gt;AppModule</title>
<path fill="none" stroke="#000000" d="M1310,-122.0109C1310,-144.4852 1310,-180 1310,-180 1310,-180 772.8872,-180 772.8872,-180"/>
<polygon fill="#000000" stroke="#000000" points="772.8873,-176.5001 762.8872,-180 772.8872,-183.5001 772.8873,-176.5001"/>
</g>
<!-- ItemSearchComponent -->
<g id="node2" class="node">
<title>ItemSearchComponent</title>
<polygon fill="#ffffb3" stroke="#000000" points="1239.5758,-122 1094.4242,-122 1094.4242,-86 1239.5758,-86 1239.5758,-122"/>
<text text-anchor="middle" x="1167" y="-99.8" font-family="Times,serif" font-size="14.00" fill="#000000">ItemSearchComponent</text>
</g>
<!-- ItemSearchComponent&#45;&gt;AppModule -->
<g id="edge2" class="edge">
<title>ItemSearchComponent&#45;&gt;AppModule</title>
<path fill="none" stroke="#000000" d="M1167,-122.1289C1167,-142.5724 1167,-173 1167,-173 1167,-173 772.9586,-173 772.9586,-173"/>
<polygon fill="#000000" stroke="#000000" points="772.9586,-169.5001 762.9586,-173 772.9586,-176.5001 772.9586,-169.5001"/>
</g>
<!-- LoginComponent -->
<g id="node3" class="node">
<title>LoginComponent</title>
<polygon fill="#ffffb3" stroke="#000000" points="1076.2758,-122 961.7242,-122 961.7242,-86 1076.2758,-86 1076.2758,-122"/>
<text text-anchor="middle" x="1019" y="-99.8" font-family="Times,serif" font-size="14.00" fill="#000000">LoginComponent</text>
</g>
<!-- LoginComponent&#45;&gt;AppModule -->
<g id="edge3" class="edge">
<title>LoginComponent&#45;&gt;AppModule</title>
<path fill="none" stroke="#000000" d="M1019,-122.2667C1019,-140.5552 1019,-166 1019,-166 1019,-166 772.7494,-166 772.7494,-166"/>
<polygon fill="#000000" stroke="#000000" points="772.7494,-162.5001 762.7494,-166 772.7494,-169.5001 772.7494,-162.5001"/>
</g>
<!-- OrderAgentComponent -->
<g id="node4" class="node">
<title>OrderAgentComponent</title>
<polygon fill="#ffffb3" stroke="#000000" points="944.1867,-122 795.8133,-122 795.8133,-86 944.1867,-86 944.1867,-122"/>
<text text-anchor="middle" x="870" y="-99.8" font-family="Times,serif" font-size="14.00" fill="#000000">OrderAgentComponent</text>
</g>
<!-- OrderAgentComponent&#45;&gt;AppModule -->
<g id="edge4" class="edge">
<title>OrderAgentComponent&#45;&gt;AppModule</title>
<path fill="none" stroke="#000000" d="M870,-122.0091C870,-138.0494 870,-159 870,-159 870,-159 772.9013,-159 772.9013,-159"/>
<polygon fill="#000000" stroke="#000000" points="772.9014,-155.5001 762.9013,-159 772.9013,-162.5001 772.9014,-155.5001"/>
</g>
<!-- OrderComponent -->
<g id="node5" class="node">
<title>OrderComponent</title>
<polygon fill="#ffffb3" stroke="#000000" points="777.9748,-122 664.0252,-122 664.0252,-86 777.9748,-86 777.9748,-122"/>
<text text-anchor="middle" x="721" y="-99.8" font-family="Times,serif" font-size="14.00" fill="#000000">OrderComponent</text>
</g>
<!-- OrderComponent&#45;&gt;AppModule -->
<g id="edge5" class="edge">
<title>OrderComponent&#45;&gt;AppModule</title>
<path fill="none" stroke="#000000" d="M721,-122.1061C721,-122.1061 721,-140.991 721,-140.991"/>
<polygon fill="#000000" stroke="#000000" points="717.5001,-140.9909 721,-150.991 724.5001,-140.991 717.5001,-140.9909"/>
</g>
<!-- OrderCreateComponent -->
<g id="node6" class="node">
<title>OrderCreateComponent</title>
<polygon fill="#ffffb3" stroke="#000000" points="646.0072,-122 495.9928,-122 495.9928,-86 646.0072,-86 646.0072,-122"/>
<text text-anchor="middle" x="571" y="-99.8" font-family="Times,serif" font-size="14.00" fill="#000000">OrderCreateComponent</text>
</g>
<!-- OrderCreateComponent&#45;&gt;AppModule -->
<g id="edge6" class="edge">
<title>OrderCreateComponent&#45;&gt;AppModule</title>
<path fill="none" stroke="#000000" d="M571,-122.0091C571,-138.0494 571,-159 571,-159 571,-159 669.2166,-159 669.2166,-159"/>
<polygon fill="#000000" stroke="#000000" points="669.2167,-162.5001 679.2166,-159 669.2166,-155.5001 669.2167,-162.5001"/>
</g>
<!-- OrderSearchComponent -->
<g id="node7" class="node">
<title>OrderSearchComponent</title>
<polygon fill="#ffffb3" stroke="#000000" points="478.0618,-122 325.9382,-122 325.9382,-86 478.0618,-86 478.0618,-122"/>
<text text-anchor="middle" x="402" y="-99.8" font-family="Times,serif" font-size="14.00" fill="#000000">OrderSearchComponent</text>
</g>
<!-- OrderSearchComponent&#45;&gt;AppModule -->
<g id="edge7" class="edge">
<title>OrderSearchComponent&#45;&gt;AppModule</title>
<path fill="none" stroke="#000000" d="M402,-122.2667C402,-140.5552 402,-166 402,-166 402,-166 669.2963,-166 669.2963,-166"/>
<polygon fill="#000000" stroke="#000000" points="669.2964,-169.5001 679.2963,-166 669.2963,-162.5001 669.2964,-169.5001"/>
</g>
<!-- OrderUpdateComponent -->
<g id="node8" class="node">
<title>OrderUpdateComponent</title>
<polygon fill="#ffffb3" stroke="#000000" points="308.4017,-122 153.5983,-122 153.5983,-86 308.4017,-86 308.4017,-122"/>
<text text-anchor="middle" x="231" y="-99.8" font-family="Times,serif" font-size="14.00" fill="#000000">OrderUpdateComponent</text>
</g>
<!-- OrderUpdateComponent&#45;&gt;AppModule -->
<g id="edge8" class="edge">
<title>OrderUpdateComponent&#45;&gt;AppModule</title>
<path fill="none" stroke="#000000" d="M231,-122.1289C231,-142.5724 231,-173 231,-173 231,-173 669.2229,-173 669.2229,-173"/>
<polygon fill="#000000" stroke="#000000" points="669.2229,-176.5001 679.2229,-173 669.2228,-169.5001 669.2229,-176.5001"/>
</g>
<!-- ViewComponent -->
<g id="node9" class="node">
<title>ViewComponent</title>
<polygon fill="#ffffb3" stroke="#000000" points="135.6513,-122 24.3487,-122 24.3487,-86 135.6513,-86 135.6513,-122"/>
<text text-anchor="middle" x="80" y="-99.8" font-family="Times,serif" font-size="14.00" fill="#000000">ViewComponent</text>
</g>
<!-- ViewComponent&#45;&gt;AppModule -->
<g id="edge9" class="edge">
<title>ViewComponent&#45;&gt;AppModule</title>
<path fill="none" stroke="#000000" d="M80,-122.0109C80,-144.4852 80,-180 80,-180 80,-180 668.9422,-180 668.9422,-180"/>
<polygon fill="#000000" stroke="#000000" points="668.9422,-183.5001 678.9422,-180 668.9422,-176.5001 668.9422,-183.5001"/>
</g>
<!-- AppComponent  -->
<g id="node11" class="node">
<title>AppComponent </title>
<polygon fill="#80b1d3" stroke="#000000" points="775.439,-252 666.561,-252 666.561,-216 775.439,-216 775.439,-252"/>
<text text-anchor="middle" x="721" y="-229.8" font-family="Times,serif" font-size="14.00" fill="#000000">AppComponent </text>
</g>
<!-- AppModule&#45;&gt;AppComponent  -->
<g id="edge10" class="edge">
<title>AppModule&#45;&gt;AppComponent </title>
<path fill="none" stroke="#000000" stroke-dasharray="1,5" d="M721,-187.1061C721,-187.1061 721,-205.991 721,-205.991"/>
<polygon fill="#000000" stroke="#000000" points="717.5001,-205.9909 721,-215.991 724.5001,-205.991 717.5001,-205.9909"/>
</g>
</g>
</svg>
