<?xml version="1.0" encoding="UTF-8" standalone="no"?>
<!DOCTYPE svg PUBLIC "-//W3C//DTD SVG 1.1//EN"
 "http://www.w3.org/Graphics/SVG/1.1/DTD/svg11.dtd">
<!-- Generated by graphviz version 2.40.1 (20161225.0304)
 -->
<!-- Title: dependencies Pages: 1 -->
<svg width="2311pt" height="284pt"
 viewBox="0.00 0.00 2311.00 284.00" xmlns="http://www.w3.org/2000/svg" xmlns:xlink="http://www.w3.org/1999/xlink">
<g id="graph0" class="graph" transform="scale(1 1) rotate(0) translate(4 280)">
<title>dependencies</title>
<polygon fill="#ffffff" stroke="transparent" points="-4,4 -4,-280 2307,-280 2307,4 -4,4"/>
<text text-anchor="start" x="1130.5091" y="-42.4" font-family="sans-serif" font-weight="bold" font-size="14.00" fill="#000000">Legend</text>
<polygon fill="#ffffb3" stroke="transparent" points="917.5,-10 917.5,-30 937.5,-30 937.5,-10 917.5,-10"/>
<text text-anchor="start" x="941.129" y="-15.4" font-family="sans-serif" font-size="14.00" fill="#000000"> &#160;Declarations</text>
<polygon fill="#8dd3c7" stroke="transparent" points="1030.5,-10 1030.5,-30 1050.5,-30 1050.5,-10 1030.5,-10"/>
<text text-anchor="start" x="1054.2251" y="-15.4" font-family="sans-serif" font-size="14.00" fill="#000000"> &#160;Module</text>
<polygon fill="#80b1d3" stroke="transparent" points="1116.5,-10 1116.5,-30 1136.5,-30 1136.5,-10 1116.5,-10"/>
<text text-anchor="start" x="1140.2812" y="-15.4" font-family="sans-serif" font-size="14.00" fill="#000000"> &#160;Bootstrap</text>
<polygon fill="#fdb462" stroke="transparent" points="1213.5,-10 1213.5,-30 1233.5,-30 1233.5,-10 1213.5,-10"/>
<text text-anchor="start" x="1237.1732" y="-15.4" font-family="sans-serif" font-size="14.00" fill="#000000"> &#160;Providers</text>
<polygon fill="#fb8072" stroke="transparent" points="1309.5,-10 1309.5,-30 1329.5,-30 1329.5,-10 1309.5,-10"/>
<text text-anchor="start" x="1333.2258" y="-15.4" font-family="sans-serif" font-size="14.00" fill="#000000"> &#160;Exports</text>
<g id="clust1" class="cluster">
<title>cluster_AppModule</title>
<polygon fill="none" stroke="#000000" stroke-dasharray="1,5" points="8,-70 8,-268 2295,-268 2295,-70 8,-70"/>
</g>
<g id="clust2" class="cluster">
<title>cluster_AppModule_declarations</title>
<polygon fill="none" stroke="#000000" points="16,-78 16,-130 2287,-130 2287,-78 16,-78"/>
</g>
<g id="clust19" class="cluster">
<title>cluster_AppModule_bootstrap</title>
<polygon fill="none" stroke="#000000" points="1091,-208 1091,-260 1215,-260 1215,-208 1091,-208"/>
</g>
<!-- AppComponent -->
<g id="node1" class="node">
<title>AppComponent</title>
<polygon fill="#ffffb3" stroke="#000000" points="2278.9399,-122 2173.0601,-122 2173.0601,-86 2278.9399,-86 2278.9399,-122"/>
<text text-anchor="middle" x="2226" y="-99.8" font-family="Times,serif" font-size="14.00" fill="#000000">AppComponent</text>
</g>
<!-- AppModule -->
<g id="node15" class="node">
<title>AppModule</title>
<polygon fill="#8dd3c7" stroke="#000000" points="1194.6571,-187 1191.6571,-191 1170.6571,-191 1167.6571,-187 1111.3429,-187 1111.3429,-151 1194.6571,-151 1194.6571,-187"/>
<text text-anchor="middle" x="1153" y="-164.8" font-family="Times,serif" font-size="14.00" fill="#000000">AppModule</text>
</g>
<!-- AppComponent&#45;&gt;AppModule -->
<g id="edge1" class="edge">
<title>AppComponent&#45;&gt;AppModule</title>
<path fill="none" stroke="#000000" d="M2226,-122.0908C2226,-145.1328 2226,-182 2226,-182 2226,-182 1204.7336,-182 1204.7336,-182"/>
<polygon fill="#000000" stroke="#000000" points="1204.7336,-178.5001 1194.7336,-182 1204.7335,-185.5001 1204.7336,-178.5001"/>
</g>
<!-- CategorySoldGraphComponent -->
<g id="node2" class="node">
<title>CategorySoldGraphComponent</title>
<polygon fill="#ffffb3" stroke="#000000" points="2155.8046,-122 1962.1954,-122 1962.1954,-86 2155.8046,-86 2155.8046,-122"/>
<text text-anchor="middle" x="2059" y="-99.8" font-family="Times,serif" font-size="14.00" fill="#000000">CategorySoldGraphComponent</text>
</g>
<!-- CategorySoldGraphComponent&#45;&gt;AppModule -->
<g id="edge2" class="edge">
<title>CategorySoldGraphComponent&#45;&gt;AppModule</title>
<path fill="none" stroke="#000000" d="M2059,-122.0449C2059,-143.6623 2059,-177 2059,-177 2059,-177 1204.8812,-177 1204.8812,-177"/>
<polygon fill="#000000" stroke="#000000" points="1204.8813,-173.5001 1194.8812,-177 1204.8812,-180.5001 1204.8813,-173.5001"/>
</g>
<!-- CreateSupplyComponent -->
<g id="node3" class="node">
<title>CreateSupplyComponent</title>
<polygon fill="#ffffb3" stroke="#000000" points="1944.5379,-122 1787.4621,-122 1787.4621,-86 1944.5379,-86 1944.5379,-122"/>
<text text-anchor="middle" x="1866" y="-99.8" font-family="Times,serif" font-size="14.00" fill="#000000">CreateSupplyComponent</text>
</g>
<!-- CreateSupplyComponent&#45;&gt;AppModule -->
<g id="edge3" class="edge">
<title>CreateSupplyComponent&#45;&gt;AppModule</title>
<path fill="none" stroke="#000000" d="M1866,-122.2228C1866,-142.3652 1866,-172 1866,-172 1866,-172 1204.6773,-172 1204.6773,-172"/>
<polygon fill="#000000" stroke="#000000" points="1204.6773,-168.5001 1194.6773,-172 1204.6772,-175.5001 1204.6773,-168.5001"/>
</g>
<!-- DashboardViewComponent -->
<g id="node4" class="node">
<title>DashboardViewComponent</title>
<polygon fill="#ffffb3" stroke="#000000" points="1769.292,-122 1596.708,-122 1596.708,-86 1769.292,-86 1769.292,-122"/>
<text text-anchor="middle" x="1683" y="-99.8" font-family="Times,serif" font-size="14.00" fill="#000000">DashboardViewComponent</text>
</g>
<!-- DashboardViewComponent&#45;&gt;AppModule -->
<g id="edge4" class="edge">
<title>DashboardViewComponent&#45;&gt;AppModule</title>
<path fill="none" stroke="#000000" d="M1683,-122.2222C1683,-140.8285 1683,-167 1683,-167 1683,-167 1205.0312,-167 1205.0312,-167"/>
<polygon fill="#000000" stroke="#000000" points="1205.0313,-163.5001 1195.0312,-167 1205.0312,-170.5001 1205.0313,-163.5001"/>
</g>
<!-- GeoComponent -->
<g id="node5" class="node">
<title>GeoComponent</title>
<polygon fill="#ffffb3" stroke="#000000" points="1579.1542,-122 1474.8458,-122 1474.8458,-86 1579.1542,-86 1579.1542,-122"/>
<text text-anchor="middle" x="1527" y="-99.8" font-family="Times,serif" font-size="14.00" fill="#000000">GeoComponent</text>
</g>
<!-- GeoComponent&#45;&gt;AppModule -->
<g id="edge5" class="edge">
<title>GeoComponent&#45;&gt;AppModule</title>
<path fill="none" stroke="#000000" d="M1527,-122.0336C1527,-139.0597 1527,-162 1527,-162 1527,-162 1204.8139,-162 1204.8139,-162"/>
<polygon fill="#000000" stroke="#000000" points="1204.8139,-158.5001 1194.8139,-162 1204.8139,-165.5001 1204.8139,-158.5001"/>
</g>
<!-- ItemSearchComponent -->
<g id="node6" class="node">
<title>ItemSearchComponent</title>
<polygon fill="#ffffb3" stroke="#000000" points="1456.5758,-122 1311.4242,-122 1311.4242,-86 1456.5758,-86 1456.5758,-122"/>
<text text-anchor="middle" x="1384" y="-99.8" font-family="Times,serif" font-size="14.00" fill="#000000">ItemSearchComponent</text>
</g>
<!-- ItemSearchComponent&#45;&gt;AppModule -->
<g id="edge6" class="edge">
<title>ItemSearchComponent&#45;&gt;AppModule</title>
<path fill="none" stroke="#000000" d="M1384,-122.2396C1384,-137.5706 1384,-157 1384,-157 1384,-157 1204.8324,-157 1204.8324,-157"/>
<polygon fill="#000000" stroke="#000000" points="1204.8324,-153.5001 1194.8324,-157 1204.8323,-160.5001 1204.8324,-153.5001"/>
</g>
<!-- ItemViewComponent -->
<g id="node7" class="node">
<title>ItemViewComponent</title>
<polygon fill="#ffffb3" stroke="#000000" points="1293.8075,-122 1156.1925,-122 1156.1925,-86 1293.8075,-86 1293.8075,-122"/>
<text text-anchor="middle" x="1225" y="-99.8" font-family="Times,serif" font-size="14.00" fill="#000000">ItemViewComponent</text>
</g>
<!-- ItemViewComponent&#45;&gt;AppModule -->
<g id="edge7" class="edge">
<title>ItemViewComponent&#45;&gt;AppModule</title>
<path fill="none" stroke="#000000" d="M1175.5873,-122.1061C1175.5873,-122.1061 1175.5873,-140.991 1175.5873,-140.991"/>
<polygon fill="#000000" stroke="#000000" points="1172.0874,-140.9909 1175.5873,-150.991 1179.0874,-140.991 1172.0874,-140.9909"/>
</g>
<!-- LoginComponent -->
<g id="node8" class="node">
<title>LoginComponent</title>
<polygon fill="#ffffb3" stroke="#000000" points="1138.2758,-122 1023.7242,-122 1023.7242,-86 1138.2758,-86 1138.2758,-122"/>
<text text-anchor="middle" x="1081" y="-99.8" font-family="Times,serif" font-size="14.00" fill="#000000">LoginComponent</text>
</g>
<!-- LoginComponent&#45;&gt;AppModule -->
<g id="edge8" class="edge">
<title>LoginComponent&#45;&gt;AppModule</title>
<path fill="none" stroke="#000000" d="M1124.7798,-122.1061C1124.7798,-122.1061 1124.7798,-140.991 1124.7798,-140.991"/>
<polygon fill="#000000" stroke="#000000" points="1121.2799,-140.9909 1124.7798,-150.991 1128.2799,-140.991 1121.2799,-140.9909"/>
</g>
<!-- OrderComponent -->
<g id="node9" class="node">
<title>OrderComponent</title>
<polygon fill="#ffffb3" stroke="#000000" points="1005.9748,-122 892.0252,-122 892.0252,-86 1005.9748,-86 1005.9748,-122"/>
<text text-anchor="middle" x="949" y="-99.8" font-family="Times,serif" font-size="14.00" fill="#000000">OrderComponent</text>
</g>
<!-- OrderComponent&#45;&gt;AppModule -->
<g id="edge9" class="edge">
<title>OrderComponent&#45;&gt;AppModule</title>
<path fill="none" stroke="#000000" d="M949,-122.2396C949,-137.5706 949,-157 949,-157 949,-157 1101.2253,-157 1101.2253,-157"/>
<polygon fill="#000000" stroke="#000000" points="1101.2253,-160.5001 1111.2253,-157 1101.2253,-153.5001 1101.2253,-160.5001"/>
</g>
<!-- OrderCreateComponent -->
<g id="node10" class="node">
<title>OrderCreateComponent</title>
<polygon fill="#ffffb3" stroke="#000000" points="874.0072,-122 723.9928,-122 723.9928,-86 874.0072,-86 874.0072,-122"/>
<text text-anchor="middle" x="799" y="-99.8" font-family="Times,serif" font-size="14.00" fill="#000000">OrderCreateComponent</text>
</g>
<!-- OrderCreateComponent&#45;&gt;AppModule -->
<g id="edge10" class="edge">
<title>OrderCreateComponent&#45;&gt;AppModule</title>
<path fill="none" stroke="#000000" d="M799,-122.0336C799,-139.0597 799,-162 799,-162 799,-162 1101.0014,-162 1101.0014,-162"/>
<polygon fill="#000000" stroke="#000000" points="1101.0015,-165.5001 1111.0014,-162 1101.0014,-158.5001 1101.0015,-165.5001"/>
</g>
<!-- OrderPriceGraphComponent -->
<g id="node11" class="node">
<title>OrderPriceGraphComponent</title>
<polygon fill="#ffffb3" stroke="#000000" points="705.7198,-122 528.2802,-122 528.2802,-86 705.7198,-86 705.7198,-122"/>
<text text-anchor="middle" x="617" y="-99.8" font-family="Times,serif" font-size="14.00" fill="#000000">OrderPriceGraphComponent</text>
</g>
<!-- OrderPriceGraphComponent&#45;&gt;AppModule -->
<g id="edge11" class="edge">
<title>OrderPriceGraphComponent&#45;&gt;AppModule</title>
<path fill="none" stroke="#000000" d="M617,-122.2222C617,-140.8285 617,-167 617,-167 617,-167 1100.941,-167 1100.941,-167"/>
<polygon fill="#000000" stroke="#000000" points="1100.941,-170.5001 1110.941,-167 1100.9409,-163.5001 1100.941,-170.5001"/>
</g>
<!-- OrderSearchComponent -->
<g id="node12" class="node">
<title>OrderSearchComponent</title>
<polygon fill="#ffffb3" stroke="#000000" points="510.0618,-122 357.9382,-122 357.9382,-86 510.0618,-86 510.0618,-122"/>
<text text-anchor="middle" x="434" y="-99.8" font-family="Times,serif" font-size="14.00" fill="#000000">OrderSearchComponent</text>
</g>
<!-- OrderSearchComponent&#45;&gt;AppModule -->
<g id="edge12" class="edge">
<title>OrderSearchComponent&#45;&gt;AppModule</title>
<path fill="none" stroke="#000000" d="M434,-122.2228C434,-142.3652 434,-172 434,-172 434,-172 1101.2357,-172 1101.2357,-172"/>
<polygon fill="#000000" stroke="#000000" points="1101.2358,-175.5001 1111.2357,-172 1101.2357,-168.5001 1101.2358,-175.5001"/>
</g>
<!-- OrderUpdateComponent -->
<g id="node13" class="node">
<title>OrderUpdateComponent</title>
<polygon fill="#ffffb3" stroke="#000000" points="340.4017,-122 185.5983,-122 185.5983,-86 340.4017,-86 340.4017,-122"/>
<text text-anchor="middle" x="263" y="-99.8" font-family="Times,serif" font-size="14.00" fill="#000000">OrderUpdateComponent</text>
</g>
<!-- OrderUpdateComponent&#45;&gt;AppModule -->
<g id="edge13" class="edge">
<title>OrderUpdateComponent&#45;&gt;AppModule</title>
<path fill="none" stroke="#000000" d="M263,-122.0449C263,-143.6623 263,-177 263,-177 263,-177 1101.2672,-177 1101.2672,-177"/>
<polygon fill="#000000" stroke="#000000" points="1101.2672,-180.5001 1111.2672,-177 1101.2671,-173.5001 1101.2672,-180.5001"/>
</g>
<!-- OrderViewComponent -->
<g id="node14" class="node">
<title>OrderViewComponent</title>
<polygon fill="#ffffb3" stroke="#000000" points="168.2935,-122 23.7065,-122 23.7065,-86 168.2935,-86 168.2935,-122"/>
<text text-anchor="middle" x="96" y="-99.8" font-family="Times,serif" font-size="14.00" fill="#000000">OrderViewComponent</text>
</g>
<!-- OrderViewComponent&#45;&gt;AppModule -->
<g id="edge14" class="edge">
<title>OrderViewComponent&#45;&gt;AppModule</title>
<path fill="none" stroke="#000000" d="M96,-122.0908C96,-145.1328 96,-182 96,-182 96,-182 1101.2388,-182 1101.2388,-182"/>
<polygon fill="#000000" stroke="#000000" points="1101.2388,-185.5001 1111.2388,-182 1101.2388,-178.5001 1101.2388,-185.5001"/>
</g>
<!-- AppComponent  -->
<g id="node16" class="node">
<title>AppComponent </title>
<polygon fill="#80b1d3" stroke="#000000" points="1207.439,-252 1098.561,-252 1098.561,-216 1207.439,-216 1207.439,-252"/>
<text text-anchor="middle" x="1153" y="-229.8" font-family="Times,serif" font-size="14.00" fill="#000000">AppComponent </text>
</g>
<!-- AppModule&#45;&gt;AppComponent  -->
<g id="edge15" class="edge">
<title>AppModule&#45;&gt;AppComponent </title>
<path fill="none" stroke="#000000" stroke-dasharray="1,5" d="M1153,-187.1061C1153,-187.1061 1153,-205.991 1153,-205.991"/>
<polygon fill="#000000" stroke="#000000" points="1149.5001,-205.9909 1153,-215.991 1156.5001,-205.991 1149.5001,-205.9909"/>
</g>
</g>
</svg>
